<svg width="40" height="40" viewBox="0 0 40 40" fill="none" xmlns="http://www.w3.org/2000/svg">
<circle cx="20" cy="20" r="19.5" stroke="#8E919A"/>
<path d="M29 12H10.3333C9.05 12 8.01167 13.05 8.01167 14.3333L8 26C8 27.2833 9.05 28.3333 10.3333 28.3333H29C30.2833 28.3333 31.3333 27.2833 31.3333 26V14.3333C31.3333 13.05 30.2833 12 29 12ZM18.5 15.5H20.8333V17.8333H18.5V15.5ZM18.5 19H20.8333V21.3333H18.5V19ZM15 15.5H17.3333V17.8333H15V15.5ZM15 19H17.3333V21.3333H15V19ZM13.8333 21.3333H11.5V19H13.8333V21.3333ZM13.8333 17.8333H11.5V15.5H13.8333V17.8333ZM24.3333 26H15V23.6667H24.3333V26ZM24.3333 21.3333H22V19H24.3333V21.3333ZM24.3333 17.8333H22V15.5H24.3333V17.8333ZM27.8333 21.3333H25.5V19H27.8333V21.3333ZM27.8333 17.8333H25.5V15.5H27.8333V17.8333Z" fill="white"/>
</svg>
