<svg width="55" height="58" viewBox="0 0 55 58" fill="none" xmlns="http://www.w3.org/2000/svg">
<path d="M47.2056 27.3011C47.2056 38.8228 46.2382 52 35.0991 52C23.9599 52 6.98242 42.3835 6.98242 30.8618C6.98242 19.3402 16.0125 10 27.1516 10C38.2908 10 47.2056 15.7795 47.2056 27.3011Z" fill="url(#paint0_linear_26_239)"/>
<path d="M48.7923 32.3032C47.1899 38.0969 43.7932 43.6803 39.2637 47.3774C34.7436 51.0667 29.1163 52.8662 22.9904 51.172C10.5946 47.7437 3.15213 35.8102 6.321 24.3523C9.4913 12.8893 22.0622 6.30105 34.4525 9.7278C40.6956 11.4544 45.0522 14.2593 47.463 18.0105C49.8668 21.7509 50.3918 26.5198 48.7923 32.3032Z" stroke="url(#paint1_linear_26_239)"/>
<path d="M25.2295 46.1608C23.8645 45.732 22.4699 45.3242 21.0843 44.9191L20.9753 44.8872C19.552 44.4711 18.1392 44.0572 16.768 43.6228C14.0216 42.7528 11.4707 41.8094 9.38 40.6259C7.28907 39.4423 5.70121 38.0424 4.82456 36.2805C3.95428 34.5315 3.74931 32.3535 4.56134 29.5353C6.20746 23.8224 10.5921 17.2847 15.9567 12.6131C21.3411 7.92421 27.5612 5.23947 32.8895 6.91341C43.7715 10.3321 49.9686 22.3188 46.686 33.7111C45.0297 39.4595 42.3586 43.4016 38.7988 45.4951C35.2466 47.5842 30.7191 47.8854 25.2295 46.1608Z" stroke="url(#paint2_linear_26_239)"/>
<defs>
<linearGradient id="paint0_linear_26_239" x1="27.1516" y1="10" x2="42.3127" y2="51.4015" gradientUnits="userSpaceOnUse">
<stop stop-color="#E2623A"/>
<stop offset="0.861738" stop-color="#C91F1F" stop-opacity="0"/>
</linearGradient>
<linearGradient id="paint1_linear_26_239" x1="33.0185" y1="8.81242" x2="21.1616" y2="51.6839" gradientUnits="userSpaceOnUse">
<stop stop-color="white"/>
<stop offset="1" stop-color="white" stop-opacity="0"/>
</linearGradient>
<linearGradient id="paint2_linear_26_239" x1="47.5795" y1="32.4156" x2="6.61248" y2="20.6114" gradientUnits="userSpaceOnUse">
<stop stop-color="white"/>
<stop offset="1" stop-color="white" stop-opacity="0"/>
</linearGradient>
</defs>
</svg>
