<svg width="338" height="96" viewBox="0 0 338 96" fill="none" xmlns="http://www.w3.org/2000/svg">
<path d="M0.5 8C0.5 3.85786 3.85786 0.5 8 0.5H168.5V19.5H0.5V8Z" fill="#2E3033" stroke="#2E3033"/>
<path d="M0.5 19.5H168.5V38.5H0.5V19.5Z" stroke="#2E3033"/>
<path d="M0.5 38.5H168.5V57.5H0.5V38.5Z" stroke="#2E3033"/>
<path d="M0.5 57.5H168.5V76.5H0.5V57.5Z" stroke="#2E3033"/>
<path d="M0.5 76.5H168.5V95.5H8C3.85787 95.5 0.5 92.1421 0.5 88V76.5Z" stroke="#2E3033"/>
<path d="M168.5 0.5H330C334.142 0.5 337.5 3.85786 337.5 8V19.5H168.5V0.5Z" fill="#2E3033" stroke="#2E3033"/>
<path d="M168.5 38.5H337.5V57.5H168.5V38.5Z" stroke="#2E3033"/>
<path d="M168.5 57.5H337.5V76.5H168.5V57.5Z" stroke="#2E3033"/>
<path d="M168.5 76.5H337.5V88C337.5 92.1421 334.142 95.5 330 95.5H168.5V76.5Z" stroke="#2E3033"/>
<path d="M17.3535 14.1406C15.0039 14.1406 13.4922 12.4297 13.4922 9.76953V9.76367C13.4922 7.10352 14.998 5.4043 17.3535 5.4043C19.1113 5.4043 20.4766 6.4707 20.7988 8.07031L20.8105 8.12891H19.7441L19.7031 8C19.375 6.97461 18.543 6.37695 17.3535 6.37695C15.666 6.37695 14.5762 7.70703 14.5762 9.76367V9.76953C14.5762 11.8262 15.6719 13.168 17.3535 13.168C18.5371 13.168 19.3574 12.582 19.7266 11.4688L19.7441 11.416H20.8105L20.7988 11.4746C20.4766 13.0918 19.123 14.1406 17.3535 14.1406ZM21.9004 14V7.90625H22.9199V8.9375H22.9434C23.1484 8.23438 23.6758 7.78906 24.3613 7.78906C24.5371 7.78906 24.6895 7.81836 24.7715 7.83008V8.82031C24.6895 8.79102 24.4727 8.76172 24.2266 8.76172C23.4355 8.76172 22.9199 9.3125 22.9199 10.2383V14H21.9004ZM26.1777 6.875C25.8262 6.875 25.5391 6.58789 25.5391 6.23633C25.5391 5.87891 25.8262 5.59766 26.1777 5.59766C26.5352 5.59766 26.8164 5.87891 26.8164 6.23633C26.8164 6.58789 26.5352 6.875 26.1777 6.875ZM25.668 14V7.90625H26.6875V14H25.668ZM30.0566 14.1172C28.9375 14.1172 28.3867 13.6133 28.3867 12.4473V8.75H27.4961V7.90625H28.3867V6.25977H29.4414V7.90625H30.6016V8.75H29.4414V12.4414C29.4414 13.0918 29.7285 13.2734 30.2734 13.2734C30.3965 13.2734 30.5137 13.2559 30.6016 13.25V14.0762C30.4727 14.0938 30.2559 14.1172 30.0566 14.1172ZM34.0293 14.1172C32.2773 14.1172 31.2227 12.8926 31.2227 10.9766V10.9707C31.2227 9.08398 32.3008 7.78906 33.9648 7.78906C35.6289 7.78906 36.6426 9.02539 36.6426 10.8535V11.2285H32.2539C32.2773 12.4824 32.9688 13.2148 34.0527 13.2148C34.8262 13.2148 35.3711 12.8281 35.5469 12.3066L35.5645 12.2539H36.5664L36.5547 12.3125C36.3555 13.3203 35.3594 14.1172 34.0293 14.1172ZM33.959 8.69141C33.0742 8.69141 32.3828 9.29492 32.2715 10.4316H35.6055C35.5059 9.24805 34.8496 8.69141 33.959 8.69141ZM37.6738 14V7.90625H38.6934V8.9375H38.7168C38.9219 8.23438 39.4492 7.78906 40.1348 7.78906C40.3105 7.78906 40.4629 7.81836 40.5449 7.83008V8.82031C40.4629 8.79102 40.2461 8.76172 40 8.76172C39.209 8.76172 38.6934 9.3125 38.6934 10.2383V14H37.6738ZM41.9512 6.875C41.5996 6.875 41.3125 6.58789 41.3125 6.23633C41.3125 5.87891 41.5996 5.59766 41.9512 5.59766C42.3086 5.59766 42.5898 5.87891 42.5898 6.23633C42.5898 6.58789 42.3086 6.875 41.9512 6.875ZM41.4414 14V7.90625H42.4609V14H41.4414ZM45.6309 14.1172C44.418 14.1172 43.6035 13.3848 43.6035 12.2773V12.2656C43.6035 11.2285 44.4121 10.5781 45.8125 10.4961L47.5586 10.3965V9.88672C47.5586 9.14258 47.0723 8.69141 46.2227 8.69141C45.4375 8.69141 44.9453 9.06641 44.8281 9.61133L44.8164 9.66406H43.832L43.8379 9.59961C43.9258 8.59766 44.7988 7.78906 46.2344 7.78906C47.6758 7.78906 48.5781 8.56836 48.5781 9.78711V14H47.5586V13.0098H47.5352C47.1777 13.6777 46.4453 14.1172 45.6309 14.1172ZM44.6465 12.2773C44.6465 12.8633 45.127 13.2324 45.8594 13.2324C46.8203 13.2324 47.5586 12.5703 47.5586 11.6855V11.1875L45.9297 11.2871C45.1152 11.334 44.6465 11.6973 44.6465 12.2656V12.2773Z" fill="white"/>
<path d="M13.6836 33V25.9541H14.5381L18.415 31.5156H18.4395V25.9541H19.3086V33H18.4541L14.5771 27.4385H14.5527V33H13.6836ZM22.2773 33.0977C21.1641 33.0977 20.5195 32.375 20.5195 31.2178V27.9219H21.3691V31.0664C21.3691 31.8916 21.7549 32.3457 22.5361 32.3457C23.3369 32.3457 23.8594 31.7744 23.8594 30.9102V27.9219H24.709V33H23.8594V32.2773H23.8398C23.5664 32.751 23.0488 33.0977 22.2773 33.0977ZM25.8174 33V27.9219H26.667V28.6641H26.6865C26.916 28.1611 27.4238 27.8242 28.0781 27.8242C28.7715 27.8242 29.2842 28.1807 29.5039 28.8008H29.5234C29.8066 28.1904 30.4023 27.8242 31.1152 27.8242C32.1211 27.8242 32.7705 28.4834 32.7705 29.4941V33H31.9209V29.6895C31.9209 28.9912 31.5352 28.5762 30.8662 28.5762C30.1924 28.5762 29.7188 29.0791 29.7188 29.7725V33H28.8691V29.5967C28.8691 28.9814 28.459 28.5762 27.8291 28.5762C27.1553 28.5762 26.667 29.1084 26.667 29.8164V33H25.8174ZM36.3789 33.0977C35.6514 33.0977 35.085 32.7314 34.7676 32.1406H34.748V33H33.8984V25.9541H34.748V28.7715H34.7676C35.085 28.1855 35.6758 27.8242 36.3936 27.8242C37.668 27.8242 38.5371 28.8545 38.5371 30.4561V30.4609C38.5371 32.0625 37.6777 33.0977 36.3789 33.0977ZM36.2129 32.3457C37.1113 32.3457 37.668 31.6279 37.668 30.4609V30.4561C37.668 29.2988 37.1113 28.5762 36.2129 28.5762C35.3584 28.5762 34.7432 29.3232 34.7432 30.4561V30.4609C34.7432 31.5986 35.3535 32.3457 36.2129 32.3457ZM41.4814 33.0977C40.0215 33.0977 39.1426 32.0771 39.1426 30.4805V30.4756C39.1426 28.9033 40.041 27.8242 41.4277 27.8242C42.8145 27.8242 43.6592 28.8545 43.6592 30.3779V30.6904H40.002C40.0215 31.7354 40.5977 32.3457 41.501 32.3457C42.1455 32.3457 42.5996 32.0234 42.7461 31.5889L42.7607 31.5449H43.5957L43.5859 31.5938C43.4199 32.4336 42.5898 33.0977 41.4814 33.0977ZM41.4229 28.5762C40.6855 28.5762 40.1094 29.0791 40.0166 30.0264H42.7949C42.7119 29.04 42.165 28.5762 41.4229 28.5762ZM44.5186 33V27.9219H45.3682V28.7812H45.3877C45.5586 28.1953 45.998 27.8242 46.5693 27.8242C46.7158 27.8242 46.8428 27.8486 46.9111 27.8584V28.6836C46.8428 28.6592 46.6621 28.6348 46.457 28.6348C45.7979 28.6348 45.3682 29.0938 45.3682 29.8652V33H44.5186ZM51.7598 33.0977C50.3486 33.0977 49.4062 32.0771 49.4062 30.4609V30.4512C49.4062 28.835 50.3535 27.8242 51.7549 27.8242C53.1562 27.8242 54.1084 28.8301 54.1084 30.4512V30.4609C54.1084 32.082 53.1611 33.0977 51.7598 33.0977ZM51.7646 32.3457C52.6582 32.3457 53.2393 31.6523 53.2393 30.4609V30.4512C53.2393 29.2598 52.6533 28.5762 51.7549 28.5762C50.8711 28.5762 50.2754 29.2646 50.2754 30.4512V30.4609C50.2754 31.6572 50.8662 32.3457 51.7646 32.3457ZM55.2412 33V28.625H54.5332V27.9219H55.2412V27.2969C55.2412 26.3203 55.6953 25.8564 56.6328 25.8564C56.8232 25.8564 57.0234 25.8711 57.1504 25.8906V26.5791C57.0479 26.5645 56.916 26.5596 56.7842 26.5596C56.3154 26.5596 56.0811 26.7988 56.0811 27.3018V27.9219H57.126V28.625H56.0908V33H55.2412ZM62.1602 33.0977C60.7197 33.0977 59.8066 32.0723 59.8066 30.4561V30.4512C59.8066 28.8496 60.7393 27.8242 62.1504 27.8242C63.415 27.8242 64.1621 28.6641 64.2695 29.5332L64.2744 29.5723H63.4443L63.4346 29.5332C63.3076 29.0254 62.8975 28.5762 62.1504 28.5762C61.2666 28.5762 60.6758 29.3086 60.6758 30.4609V30.4658C60.6758 31.6475 61.2812 32.3457 62.1602 32.3457C62.8535 32.3457 63.2979 31.9551 63.4395 31.3887L63.4492 31.3496H64.2842L64.2793 31.3838C64.1426 32.3506 63.3076 33.0977 62.1602 33.0977ZM65.5439 27.0625C65.251 27.0625 65.0117 26.8232 65.0117 26.5303C65.0117 26.2324 65.251 25.998 65.5439 25.998C65.8418 25.998 66.0762 26.2324 66.0762 26.5303C66.0762 26.8232 65.8418 27.0625 65.5439 27.0625ZM65.1191 33V27.9219H65.9688V33H65.1191ZM68.7764 33.0977C67.8438 33.0977 67.3848 32.6777 67.3848 31.7061V28.625H66.6426V27.9219H67.3848V26.5498H68.2637V27.9219H69.2305V28.625H68.2637V31.7012C68.2637 32.2432 68.5029 32.3945 68.957 32.3945C69.0596 32.3945 69.1572 32.3799 69.2305 32.375V33.0635C69.123 33.0781 68.9424 33.0977 68.7764 33.0977ZM71.5303 33.0977C70.5195 33.0977 69.8408 32.4873 69.8408 31.5645V31.5547C69.8408 30.6904 70.5146 30.1484 71.6816 30.0801L73.1367 29.9971V29.5723C73.1367 28.9521 72.7314 28.5762 72.0234 28.5762C71.3691 28.5762 70.959 28.8887 70.8613 29.3428L70.8516 29.3867H70.0312L70.0361 29.333C70.1094 28.498 70.8369 27.8242 72.0332 27.8242C73.2344 27.8242 73.9863 28.4736 73.9863 29.4893V33H73.1367V32.1748H73.1172C72.8193 32.7314 72.209 33.0977 71.5303 33.0977ZM70.71 31.5645C70.71 32.0527 71.1104 32.3604 71.7207 32.3604C72.5215 32.3604 73.1367 31.8086 73.1367 31.0713V30.6562L71.7793 30.7393C71.1006 30.7783 70.71 31.0811 70.71 31.5547V31.5645ZM76.7158 33.0977C75.7832 33.0977 75.3242 32.6777 75.3242 31.7061V28.625H74.582V27.9219H75.3242V26.5498H76.2031V27.9219H77.1699V28.625H76.2031V31.7012C76.2031 32.2432 76.4424 32.3945 76.8965 32.3945C76.999 32.3945 77.0967 32.3799 77.1699 32.375V33.0635C77.0625 33.0781 76.8818 33.0977 76.7158 33.0977ZM78.5615 27.0625C78.2686 27.0625 78.0293 26.8232 78.0293 26.5303C78.0293 26.2324 78.2686 25.998 78.5615 25.998C78.8594 25.998 79.0938 26.2324 79.0938 26.5303C79.0938 26.8232 78.8594 27.0625 78.5615 27.0625ZM78.1367 33V27.9219H78.9863V33H78.1367ZM82.248 33.0977C80.8369 33.0977 79.8945 32.0771 79.8945 30.4609V30.4512C79.8945 28.835 80.8418 27.8242 82.2432 27.8242C83.6445 27.8242 84.5967 28.8301 84.5967 30.4512V30.4609C84.5967 32.082 83.6494 33.0977 82.248 33.0977ZM82.2529 32.3457C83.1465 32.3457 83.7275 31.6523 83.7275 30.4609V30.4512C83.7275 29.2598 83.1416 28.5762 82.2432 28.5762C81.3594 28.5762 80.7637 29.2646 80.7637 30.4512V30.4609C80.7637 31.6572 81.3545 32.3457 82.2529 32.3457ZM85.4561 33V27.9219H86.3057V28.6445H86.3252C86.5986 28.1709 87.1162 27.8242 87.8877 27.8242C89.001 27.8242 89.6455 28.5469 89.6455 29.7041V33H88.7959V29.8555C88.7959 29.0303 88.4102 28.5762 87.6289 28.5762C86.8281 28.5762 86.3057 29.1475 86.3057 30.0117V33H85.4561ZM92.5312 33.0977C91.335 33.0977 90.6123 32.4873 90.5098 31.5791L90.5049 31.5352H91.3545L91.3643 31.584C91.4668 32.0918 91.8428 32.3896 92.5361 32.3896C93.2246 32.3896 93.6348 32.1016 93.6348 31.6426V31.6377C93.6348 31.2715 93.4443 31.0664 92.8682 30.9248L92.0625 30.7295C91.1055 30.5 90.6416 30.0557 90.6416 29.3232V29.3184C90.6416 28.4443 91.4082 27.8242 92.5068 27.8242C93.6201 27.8242 94.3281 28.4736 94.3916 29.3232L94.3965 29.3867H93.5859L93.5811 29.3525C93.5127 28.8594 93.1367 28.5322 92.5068 28.5322C91.8916 28.5322 91.5107 28.8301 91.5107 29.2793V29.2842C91.5107 29.6309 91.7402 29.8701 92.3018 30.0068L93.1074 30.2021C94.1328 30.4512 94.5039 30.8564 94.5039 31.5791V31.584C94.5039 32.4727 93.6641 33.0977 92.5312 33.0977Z" fill="white"/>
<path d="M177.571 33V32.3945L180.052 29.8066C181.004 28.8154 181.224 28.4346 181.224 27.8486V27.8389C181.219 27.1211 180.677 26.6035 179.91 26.6035C179.031 26.6035 178.377 27.209 178.377 27.9658V27.9902H177.527V27.9609C177.527 26.7402 178.582 25.8369 179.896 25.8369C181.17 25.8369 182.103 26.6914 182.103 27.7949V27.8047C182.103 28.5762 181.746 29.1572 180.452 30.4805L178.777 32.1992V32.2188H182.22V33H177.571ZM185.657 33.1172C184.31 33.1172 183.348 32.2773 183.245 31.1299L183.24 31.0762H184.104L184.109 31.1152C184.197 31.8135 184.822 32.3457 185.667 32.3457C186.624 32.3457 187.288 31.6816 187.288 30.7344V30.7246C187.283 29.7969 186.614 29.1328 185.682 29.1328C185.203 29.1328 184.793 29.2744 184.48 29.5576C184.354 29.6748 184.241 29.8115 184.148 29.9727H183.372L183.733 25.9541H187.767V26.7354H184.456L184.217 29.1035H184.236C184.568 28.6299 185.154 28.376 185.838 28.376C187.19 28.376 188.167 29.3574 188.167 30.71V30.7197C188.162 32.1309 187.122 33.1172 185.657 33.1172ZM190.384 29.4307C189.495 29.4307 188.958 28.752 188.958 27.6631V27.6582C188.958 26.5742 189.495 25.8955 190.384 25.8955C191.272 25.8955 191.81 26.5742 191.81 27.6582V27.6631C191.81 28.752 191.272 29.4307 190.384 29.4307ZM190.701 33H189.9L194.422 25.9541H195.213L190.701 33ZM190.384 28.8447C190.857 28.8447 191.131 28.4053 191.131 27.6631V27.6582C191.131 26.916 190.857 26.4814 190.384 26.4814C189.91 26.4814 189.637 26.916 189.637 27.6582V27.6631C189.637 28.4053 189.91 28.8447 190.384 28.8447ZM194.725 33.0586C193.836 33.0586 193.299 32.3799 193.299 31.291V31.2861C193.299 30.2021 193.836 29.5234 194.725 29.5234C195.613 29.5234 196.15 30.2021 196.15 31.2861V31.291C196.15 32.3799 195.613 33.0586 194.725 33.0586ZM194.725 32.4727C195.198 32.4727 195.472 32.0332 195.472 31.291V31.2861C195.472 30.5439 195.198 30.1094 194.725 30.1094C194.251 30.1094 193.978 30.5439 193.978 31.2861V31.291C193.978 32.0332 194.251 32.4727 194.725 32.4727Z" fill="white"/>
<path d="M177.571 53V52.3945L180.052 49.8066C181.004 48.8154 181.224 48.4346 181.224 47.8486V47.8389C181.219 47.1211 180.677 46.6035 179.91 46.6035C179.031 46.6035 178.377 47.209 178.377 47.9658V47.9902H177.527V47.9609C177.527 46.7402 178.582 45.8369 179.896 45.8369C181.17 45.8369 182.103 46.6914 182.103 47.7949V47.8047C182.103 48.5762 181.746 49.1572 180.452 50.4805L178.777 52.1992V52.2188H182.22V53H177.571ZM185.657 53.1172C184.31 53.1172 183.348 52.2773 183.245 51.1299L183.24 51.0762H184.104L184.109 51.1152C184.197 51.8135 184.822 52.3457 185.667 52.3457C186.624 52.3457 187.288 51.6816 187.288 50.7344V50.7246C187.283 49.7969 186.614 49.1328 185.682 49.1328C185.203 49.1328 184.793 49.2744 184.48 49.5576C184.354 49.6748 184.241 49.8115 184.148 49.9727H183.372L183.733 45.9541H187.767V46.7354H184.456L184.217 49.1035H184.236C184.568 48.6299 185.154 48.376 185.838 48.376C187.19 48.376 188.167 49.3574 188.167 50.71V50.7197C188.162 52.1309 187.122 53.1172 185.657 53.1172ZM190.384 49.4307C189.495 49.4307 188.958 48.752 188.958 47.6631V47.6582C188.958 46.5742 189.495 45.8955 190.384 45.8955C191.272 45.8955 191.81 46.5742 191.81 47.6582V47.6631C191.81 48.752 191.272 49.4307 190.384 49.4307ZM190.701 53H189.9L194.422 45.9541H195.213L190.701 53ZM190.384 48.8447C190.857 48.8447 191.131 48.4053 191.131 47.6631V47.6582C191.131 46.916 190.857 46.4814 190.384 46.4814C189.91 46.4814 189.637 46.916 189.637 47.6582V47.6631C189.637 48.4053 189.91 48.8447 190.384 48.8447ZM194.725 53.0586C193.836 53.0586 193.299 52.3799 193.299 51.291V51.2861C193.299 50.2021 193.836 49.5234 194.725 49.5234C195.613 49.5234 196.15 50.2021 196.15 51.2861V51.291C196.15 52.3799 195.613 53.0586 194.725 53.0586ZM194.725 52.4727C195.198 52.4727 195.472 52.0332 195.472 51.291V51.2861C195.472 50.5439 195.198 50.1094 194.725 50.1094C194.251 50.1094 193.978 50.5439 193.978 51.2861V51.291C193.978 52.0332 194.251 52.4727 194.725 52.4727Z" fill="white"/>
<path d="M177.571 71V70.3945L180.052 67.8066C181.004 66.8154 181.224 66.4346 181.224 65.8486V65.8389C181.219 65.1211 180.677 64.6035 179.91 64.6035C179.031 64.6035 178.377 65.209 178.377 65.9658V65.9902H177.527V65.9609C177.527 64.7402 178.582 63.8369 179.896 63.8369C181.17 63.8369 182.103 64.6914 182.103 65.7949V65.8047C182.103 66.5762 181.746 67.1572 180.452 68.4805L178.777 70.1992V70.2188H182.22V71H177.571ZM185.657 71.1172C184.31 71.1172 183.348 70.2773 183.245 69.1299L183.24 69.0762H184.104L184.109 69.1152C184.197 69.8135 184.822 70.3457 185.667 70.3457C186.624 70.3457 187.288 69.6816 187.288 68.7344V68.7246C187.283 67.7969 186.614 67.1328 185.682 67.1328C185.203 67.1328 184.793 67.2744 184.48 67.5576C184.354 67.6748 184.241 67.8115 184.148 67.9727H183.372L183.733 63.9541H187.767V64.7354H184.456L184.217 67.1035H184.236C184.568 66.6299 185.154 66.376 185.838 66.376C187.19 66.376 188.167 67.3574 188.167 68.71V68.7197C188.162 70.1309 187.122 71.1172 185.657 71.1172ZM190.384 67.4307C189.495 67.4307 188.958 66.752 188.958 65.6631V65.6582C188.958 64.5742 189.495 63.8955 190.384 63.8955C191.272 63.8955 191.81 64.5742 191.81 65.6582V65.6631C191.81 66.752 191.272 67.4307 190.384 67.4307ZM190.701 71H189.9L194.422 63.9541H195.213L190.701 71ZM190.384 66.8447C190.857 66.8447 191.131 66.4053 191.131 65.6631V65.6582C191.131 64.916 190.857 64.4814 190.384 64.4814C189.91 64.4814 189.637 64.916 189.637 65.6582V65.6631C189.637 66.4053 189.91 66.8447 190.384 66.8447ZM194.725 71.0586C193.836 71.0586 193.299 70.3799 193.299 69.291V69.2861C193.299 68.2021 193.836 67.5234 194.725 67.5234C195.613 67.5234 196.15 68.2021 196.15 69.2861V69.291C196.15 70.3799 195.613 71.0586 194.725 71.0586ZM194.725 70.4727C195.198 70.4727 195.472 70.0332 195.472 69.291V69.2861C195.472 68.5439 195.198 68.1094 194.725 68.1094C194.251 68.1094 193.978 68.5439 193.978 69.2861V69.291C193.978 70.0332 194.251 70.4727 194.725 70.4727Z" fill="white"/>
<path d="M177.571 89V88.3945L180.052 85.8066C181.004 84.8154 181.224 84.4346 181.224 83.8486V83.8389C181.219 83.1211 180.677 82.6035 179.91 82.6035C179.031 82.6035 178.377 83.209 178.377 83.9658V83.9902H177.527V83.9609C177.527 82.7402 178.582 81.8369 179.896 81.8369C181.17 81.8369 182.103 82.6914 182.103 83.7949V83.8047C182.103 84.5762 181.746 85.1572 180.452 86.4805L178.777 88.1992V88.2188H182.22V89H177.571ZM185.657 89.1172C184.31 89.1172 183.348 88.2773 183.245 87.1299L183.24 87.0762H184.104L184.109 87.1152C184.197 87.8135 184.822 88.3457 185.667 88.3457C186.624 88.3457 187.288 87.6816 187.288 86.7344V86.7246C187.283 85.7969 186.614 85.1328 185.682 85.1328C185.203 85.1328 184.793 85.2744 184.48 85.5576C184.354 85.6748 184.241 85.8115 184.148 85.9727H183.372L183.733 81.9541H187.767V82.7354H184.456L184.217 85.1035H184.236C184.568 84.6299 185.154 84.376 185.838 84.376C187.19 84.376 188.167 85.3574 188.167 86.71V86.7197C188.162 88.1309 187.122 89.1172 185.657 89.1172ZM190.384 85.4307C189.495 85.4307 188.958 84.752 188.958 83.6631V83.6582C188.958 82.5742 189.495 81.8955 190.384 81.8955C191.272 81.8955 191.81 82.5742 191.81 83.6582V83.6631C191.81 84.752 191.272 85.4307 190.384 85.4307ZM190.701 89H189.9L194.422 81.9541H195.213L190.701 89ZM190.384 84.8447C190.857 84.8447 191.131 84.4053 191.131 83.6631V83.6582C191.131 82.916 190.857 82.4814 190.384 82.4814C189.91 82.4814 189.637 82.916 189.637 83.6582V83.6631C189.637 84.4053 189.91 84.8447 190.384 84.8447ZM194.725 89.0586C193.836 89.0586 193.299 88.3799 193.299 87.291V87.2861C193.299 86.2021 193.836 85.5234 194.725 85.5234C195.613 85.5234 196.15 86.2021 196.15 87.2861V87.291C196.15 88.3799 195.613 89.0586 194.725 89.0586ZM194.725 88.4727C195.198 88.4727 195.472 88.0332 195.472 87.291V87.2861C195.472 86.5439 195.198 86.1094 194.725 86.1094C194.251 86.1094 193.978 86.5439 193.978 87.2861V87.291C193.978 88.0332 194.251 88.4727 194.725 88.4727Z" fill="white"/>
<path d="M16.6279 51.1172C14.6699 51.1172 13.4102 49.6914 13.4102 47.4746V47.4697C13.4102 45.2529 14.665 43.8369 16.6279 43.8369C18.0928 43.8369 19.2305 44.7256 19.499 46.0586L19.5088 46.1074H18.6201L18.5859 46C18.3125 45.1455 17.6191 44.6475 16.6279 44.6475C15.2217 44.6475 14.3135 45.7559 14.3135 47.4697V47.4746C14.3135 49.1885 15.2266 50.3066 16.6279 50.3066C17.6143 50.3066 18.2979 49.8184 18.6055 48.8906L18.6201 48.8467H19.5088L19.499 48.8955C19.2305 50.2432 18.1025 51.1172 16.6279 51.1172ZM20.417 51V45.9219H21.2666V46.7812H21.2861C21.457 46.1953 21.8965 45.8242 22.4678 45.8242C22.6143 45.8242 22.7412 45.8486 22.8096 45.8584V46.6836C22.7412 46.6592 22.5605 46.6348 22.3555 46.6348C21.6963 46.6348 21.2666 47.0938 21.2666 47.8652V51H20.417ZM25.3486 51.0977C23.8887 51.0977 23.0098 50.0771 23.0098 48.4805V48.4756C23.0098 46.9033 23.9082 45.8242 25.2949 45.8242C26.6816 45.8242 27.5264 46.8545 27.5264 48.3779V48.6904H23.8691C23.8887 49.7354 24.4648 50.3457 25.3682 50.3457C26.0127 50.3457 26.4668 50.0234 26.6133 49.5889L26.6279 49.5449H27.4629L27.4531 49.5938C27.2871 50.4336 26.457 51.0977 25.3486 51.0977ZM25.29 46.5762C24.5527 46.5762 23.9766 47.0791 23.8838 48.0264H26.6621C26.5791 47.04 26.0322 46.5762 25.29 46.5762ZM30.2949 51.0977C28.9961 51.0977 28.1367 50.0625 28.1367 48.4609V48.4561C28.1367 46.8545 29.0059 45.8242 30.2803 45.8242C30.998 45.8242 31.5889 46.1855 31.9062 46.7715H31.9258V43.9541H32.7754V51H31.9258V50.1406H31.9062C31.5889 50.7314 31.0225 51.0977 30.2949 51.0977ZM30.4609 50.3457C31.3203 50.3457 31.9307 49.5986 31.9307 48.4609V48.4561C31.9307 47.3232 31.3154 46.5762 30.4609 46.5762C29.5625 46.5762 29.0059 47.2988 29.0059 48.4561V48.4609C29.0059 49.6279 29.5625 50.3457 30.4609 50.3457ZM34.4014 45.0625C34.1084 45.0625 33.8691 44.8232 33.8691 44.5303C33.8691 44.2324 34.1084 43.998 34.4014 43.998C34.6992 43.998 34.9336 44.2324 34.9336 44.5303C34.9336 44.8232 34.6992 45.0625 34.4014 45.0625ZM33.9766 51V45.9219H34.8262V51H33.9766ZM38.5078 51.0977C37.7803 51.0977 37.2139 50.7314 36.8965 50.1406H36.877V51H36.0273V43.9541H36.877V46.7715H36.8965C37.2139 46.1855 37.8047 45.8242 38.5225 45.8242C39.7969 45.8242 40.666 46.8545 40.666 48.4561V48.4609C40.666 50.0625 39.8066 51.0977 38.5078 51.0977ZM38.3418 50.3457C39.2402 50.3457 39.7969 49.6279 39.7969 48.4609V48.4561C39.7969 47.2988 39.2402 46.5762 38.3418 46.5762C37.4873 46.5762 36.8721 47.3232 36.8721 48.4561V48.4609C36.8721 49.5986 37.4824 50.3457 38.3418 50.3457ZM41.999 45.0625C41.7061 45.0625 41.4668 44.8232 41.4668 44.5303C41.4668 44.2324 41.7061 43.998 41.999 43.998C42.2969 43.998 42.5312 44.2324 42.5312 44.5303C42.5312 44.8232 42.2969 45.0625 41.999 45.0625ZM41.5742 51V45.9219H42.4238V51H41.5742ZM43.625 51V43.9541H44.4746V51H43.625ZM46.1006 45.0625C45.8076 45.0625 45.5684 44.8232 45.5684 44.5303C45.5684 44.2324 45.8076 43.998 46.1006 43.998C46.3984 43.998 46.6328 44.2324 46.6328 44.5303C46.6328 44.8232 46.3984 45.0625 46.1006 45.0625ZM45.6758 51V45.9219H46.5254V51H45.6758ZM49.333 51.0977C48.4004 51.0977 47.9414 50.6777 47.9414 49.7061V46.625H47.1992V45.9219H47.9414V44.5498H48.8203V45.9219H49.7871V46.625H48.8203V49.7012C48.8203 50.2432 49.0596 50.3945 49.5137 50.3945C49.6162 50.3945 49.7139 50.3799 49.7871 50.375V51.0635C49.6797 51.0781 49.499 51.0977 49.333 51.0977ZM51.1885 52.709C51.0225 52.709 50.8418 52.6895 50.7344 52.6699V51.9766C50.8076 51.9912 50.9053 52.0059 51.0078 52.0059C51.5449 52.0059 51.8428 51.8691 52.0479 51.293L52.1504 51.0049L50.2656 45.9219H51.1738L52.5752 50.1504H52.5947L54.001 45.9219H54.8945L52.9121 51.3174C52.5508 52.2891 52.1064 52.709 51.1885 52.709ZM59.7188 51.0977C58.3076 51.0977 57.3652 50.0771 57.3652 48.4609V48.4512C57.3652 46.835 58.3125 45.8242 59.7139 45.8242C61.1152 45.8242 62.0674 46.8301 62.0674 48.4512V48.4609C62.0674 50.082 61.1201 51.0977 59.7188 51.0977ZM59.7236 50.3457C60.6172 50.3457 61.1982 49.6523 61.1982 48.4609V48.4512C61.1982 47.2598 60.6123 46.5762 59.7139 46.5762C58.8301 46.5762 58.2344 47.2646 58.2344 48.4512V48.4609C58.2344 49.6572 58.8252 50.3457 59.7236 50.3457ZM63.2002 51V46.625H62.4922V45.9219H63.2002V45.2969C63.2002 44.3203 63.6543 43.8564 64.5918 43.8564C64.7822 43.8564 64.9824 43.8711 65.1094 43.8906V44.5791C65.0068 44.5645 64.875 44.5596 64.7432 44.5596C64.2744 44.5596 64.04 44.7988 64.04 45.3018V45.9219H65.085V46.625H64.0498V51H63.2002ZM68.0146 52.709V45.9219H68.8643V46.7812H68.8838C69.2012 46.1904 69.7676 45.8242 70.4951 45.8242C71.7939 45.8242 72.6533 46.8594 72.6533 48.4609V48.4658C72.6533 50.0674 71.7842 51.0977 70.5098 51.0977C69.792 51.0977 69.2012 50.7363 68.8838 50.1504H68.8643V52.709H68.0146ZM70.3291 50.3457C71.2275 50.3457 71.7842 49.623 71.7842 48.4658V48.4609C71.7842 47.2939 71.2275 46.5762 70.3291 46.5762C69.4697 46.5762 68.8594 47.3232 68.8594 48.4609V48.4658C68.8594 49.5986 69.4746 50.3457 70.3291 50.3457ZM75.2461 51.0977C74.1328 51.0977 73.4883 50.375 73.4883 49.2178V45.9219H74.3379V49.0664C74.3379 49.8916 74.7236 50.3457 75.5049 50.3457C76.3057 50.3457 76.8281 49.7744 76.8281 48.9102V45.9219H77.6777V51H76.8281V50.2773H76.8086C76.5352 50.751 76.0176 51.0977 75.2461 51.0977ZM81.3105 51.0977C80.583 51.0977 80.0166 50.7314 79.6992 50.1406H79.6797V51H78.8301V43.9541H79.6797V46.7715H79.6992C80.0166 46.1855 80.6074 45.8242 81.3252 45.8242C82.5996 45.8242 83.4688 46.8545 83.4688 48.4561V48.4609C83.4688 50.0625 82.6094 51.0977 81.3105 51.0977ZM81.1445 50.3457C82.043 50.3457 82.5996 49.6279 82.5996 48.4609V48.4561C82.5996 47.2988 82.043 46.5762 81.1445 46.5762C80.29 46.5762 79.6748 47.3232 79.6748 48.4561V48.4609C79.6748 49.5986 80.2852 50.3457 81.1445 50.3457ZM84.3672 51V43.9541H85.2168V51H84.3672ZM86.8428 45.0625C86.5498 45.0625 86.3105 44.8232 86.3105 44.5303C86.3105 44.2324 86.5498 43.998 86.8428 43.998C87.1406 43.998 87.375 44.2324 87.375 44.5303C87.375 44.8232 87.1406 45.0625 86.8428 45.0625ZM86.418 51V45.9219H87.2676V51H86.418ZM90.2266 51.0977C89.0303 51.0977 88.3076 50.4873 88.2051 49.5791L88.2002 49.5352H89.0498L89.0596 49.584C89.1621 50.0918 89.5381 50.3896 90.2314 50.3896C90.9199 50.3896 91.3301 50.1016 91.3301 49.6426V49.6377C91.3301 49.2715 91.1396 49.0664 90.5635 48.9248L89.7578 48.7295C88.8008 48.5 88.3369 48.0557 88.3369 47.3232V47.3184C88.3369 46.4443 89.1035 45.8242 90.2021 45.8242C91.3154 45.8242 92.0234 46.4736 92.0869 47.3232L92.0918 47.3867H91.2812L91.2764 47.3525C91.208 46.8594 90.832 46.5322 90.2021 46.5322C89.5869 46.5322 89.2061 46.8301 89.2061 47.2793V47.2842C89.2061 47.6309 89.4355 47.8701 89.9971 48.0068L90.8027 48.2021C91.8281 48.4512 92.1992 48.8564 92.1992 49.5791V49.584C92.1992 50.4727 91.3594 51.0977 90.2266 51.0977ZM93.127 51V43.9541H93.9766V46.7324H93.9961C94.2695 46.1611 94.8213 45.8242 95.5781 45.8242C96.6572 45.8242 97.3945 46.6592 97.3945 47.8896V51H96.5449V48.0361C96.5449 47.1182 96.0762 46.5762 95.2852 46.5762C94.499 46.5762 93.9766 47.1719 93.9766 48.0361V51H93.127ZM100.563 51.0977C99.1035 51.0977 98.2246 50.0771 98.2246 48.4805V48.4756C98.2246 46.9033 99.123 45.8242 100.51 45.8242C101.896 45.8242 102.741 46.8545 102.741 48.3779V48.6904H99.084C99.1035 49.7354 99.6797 50.3457 100.583 50.3457C101.228 50.3457 101.682 50.0234 101.828 49.5889L101.843 49.5449H102.678L102.668 49.5938C102.502 50.4336 101.672 51.0977 100.563 51.0977ZM100.505 46.5762C99.7676 46.5762 99.1914 47.0791 99.0986 48.0264H101.877C101.794 47.04 101.247 46.5762 100.505 46.5762ZM103.601 51V45.9219H104.45V46.7812H104.47C104.641 46.1953 105.08 45.8242 105.651 45.8242C105.798 45.8242 105.925 45.8486 105.993 45.8584V46.6836C105.925 46.6592 105.744 46.6348 105.539 46.6348C104.88 46.6348 104.45 47.0938 104.45 47.8652V51H103.601Z" fill="white"/>
<path d="M16.6279 70.1172C14.6699 70.1172 13.4102 68.6914 13.4102 66.4746V66.4697C13.4102 64.2529 14.665 62.8369 16.6279 62.8369C18.0928 62.8369 19.2305 63.7256 19.499 65.0586L19.5088 65.1074H18.6201L18.5859 65C18.3125 64.1455 17.6191 63.6475 16.6279 63.6475C15.2217 63.6475 14.3135 64.7559 14.3135 66.4697V66.4746C14.3135 68.1885 15.2266 69.3066 16.6279 69.3066C17.6143 69.3066 18.2979 68.8184 18.6055 67.8906L18.6201 67.8467H19.5088L19.499 67.8955C19.2305 69.2432 18.1025 70.1172 16.6279 70.1172ZM20.417 70V64.9219H21.2666V65.7812H21.2861C21.457 65.1953 21.8965 64.8242 22.4678 64.8242C22.6143 64.8242 22.7412 64.8486 22.8096 64.8584V65.6836C22.7412 65.6592 22.5605 65.6348 22.3555 65.6348C21.6963 65.6348 21.2666 66.0938 21.2666 66.8652V70H20.417ZM25.3486 70.0977C23.8887 70.0977 23.0098 69.0771 23.0098 67.4805V67.4756C23.0098 65.9033 23.9082 64.8242 25.2949 64.8242C26.6816 64.8242 27.5264 65.8545 27.5264 67.3779V67.6904H23.8691C23.8887 68.7354 24.4648 69.3457 25.3682 69.3457C26.0127 69.3457 26.4668 69.0234 26.6133 68.5889L26.6279 68.5449H27.4629L27.4531 68.5938C27.2871 69.4336 26.457 70.0977 25.3486 70.0977ZM25.29 65.5762C24.5527 65.5762 23.9766 66.0791 23.8838 67.0264H26.6621C26.5791 66.04 26.0322 65.5762 25.29 65.5762ZM30.2949 70.0977C28.9961 70.0977 28.1367 69.0625 28.1367 67.4609V67.4561C28.1367 65.8545 29.0059 64.8242 30.2803 64.8242C30.998 64.8242 31.5889 65.1855 31.9062 65.7715H31.9258V62.9541H32.7754V70H31.9258V69.1406H31.9062C31.5889 69.7314 31.0225 70.0977 30.2949 70.0977ZM30.4609 69.3457C31.3203 69.3457 31.9307 68.5986 31.9307 67.4609V67.4561C31.9307 66.3232 31.3154 65.5762 30.4609 65.5762C29.5625 65.5762 29.0059 66.2988 29.0059 67.4561V67.4609C29.0059 68.6279 29.5625 69.3457 30.4609 69.3457ZM34.4014 64.0625C34.1084 64.0625 33.8691 63.8232 33.8691 63.5303C33.8691 63.2324 34.1084 62.998 34.4014 62.998C34.6992 62.998 34.9336 63.2324 34.9336 63.5303C34.9336 63.8232 34.6992 64.0625 34.4014 64.0625ZM33.9766 70V64.9219H34.8262V70H33.9766ZM38.5078 70.0977C37.7803 70.0977 37.2139 69.7314 36.8965 69.1406H36.877V70H36.0273V62.9541H36.877V65.7715H36.8965C37.2139 65.1855 37.8047 64.8242 38.5225 64.8242C39.7969 64.8242 40.666 65.8545 40.666 67.4561V67.4609C40.666 69.0625 39.8066 70.0977 38.5078 70.0977ZM38.3418 69.3457C39.2402 69.3457 39.7969 68.6279 39.7969 67.4609V67.4561C39.7969 66.2988 39.2402 65.5762 38.3418 65.5762C37.4873 65.5762 36.8721 66.3232 36.8721 67.4561V67.4609C36.8721 68.5986 37.4824 69.3457 38.3418 69.3457ZM41.999 64.0625C41.7061 64.0625 41.4668 63.8232 41.4668 63.5303C41.4668 63.2324 41.7061 62.998 41.999 62.998C42.2969 62.998 42.5312 63.2324 42.5312 63.5303C42.5312 63.8232 42.2969 64.0625 41.999 64.0625ZM41.5742 70V64.9219H42.4238V70H41.5742ZM43.625 70V62.9541H44.4746V70H43.625ZM46.1006 64.0625C45.8076 64.0625 45.5684 63.8232 45.5684 63.5303C45.5684 63.2324 45.8076 62.998 46.1006 62.998C46.3984 62.998 46.6328 63.2324 46.6328 63.5303C46.6328 63.8232 46.3984 64.0625 46.1006 64.0625ZM45.6758 70V64.9219H46.5254V70H45.6758ZM49.333 70.0977C48.4004 70.0977 47.9414 69.6777 47.9414 68.7061V65.625H47.1992V64.9219H47.9414V63.5498H48.8203V64.9219H49.7871V65.625H48.8203V68.7012C48.8203 69.2432 49.0596 69.3945 49.5137 69.3945C49.6162 69.3945 49.7139 69.3799 49.7871 69.375V70.0635C49.6797 70.0781 49.499 70.0977 49.333 70.0977ZM51.1885 71.709C51.0225 71.709 50.8418 71.6895 50.7344 71.6699V70.9766C50.8076 70.9912 50.9053 71.0059 51.0078 71.0059C51.5449 71.0059 51.8428 70.8691 52.0479 70.293L52.1504 70.0049L50.2656 64.9219H51.1738L52.5752 69.1504H52.5947L54.001 64.9219H54.8945L52.9121 70.3174C52.5508 71.2891 52.1064 71.709 51.1885 71.709ZM59.7188 70.0977C58.3076 70.0977 57.3652 69.0771 57.3652 67.4609V67.4512C57.3652 65.835 58.3125 64.8242 59.7139 64.8242C61.1152 64.8242 62.0674 65.8301 62.0674 67.4512V67.4609C62.0674 69.082 61.1201 70.0977 59.7188 70.0977ZM59.7236 69.3457C60.6172 69.3457 61.1982 68.6523 61.1982 67.4609V67.4512C61.1982 66.2598 60.6123 65.5762 59.7139 65.5762C58.8301 65.5762 58.2344 66.2646 58.2344 67.4512V67.4609C58.2344 68.6572 58.8252 69.3457 59.7236 69.3457ZM63.2002 70V65.625H62.4922V64.9219H63.2002V64.2969C63.2002 63.3203 63.6543 62.8564 64.5918 62.8564C64.7822 62.8564 64.9824 62.8711 65.1094 62.8906V63.5791C65.0068 63.5645 64.875 63.5596 64.7432 63.5596C64.2744 63.5596 64.04 63.7988 64.04 64.3018V64.9219H65.085V65.625H64.0498V70H63.2002ZM70.9492 70.1172C69.2012 70.1172 68.1465 69.0625 68.1465 67.5293V62.9541H69.0254V67.4707C69.0254 68.5547 69.7285 69.3066 70.9492 69.3066C72.1699 69.3066 72.8633 68.5547 72.8633 67.4707V62.9541H73.7422V67.5293C73.7422 69.0625 72.6973 70.1172 70.9492 70.1172ZM74.9775 70V64.9219H75.8271V65.6445H75.8467C76.1201 65.1709 76.6377 64.8242 77.4092 64.8242C78.5225 64.8242 79.167 65.5469 79.167 66.7041V70H78.3174V66.8555C78.3174 66.0303 77.9316 65.5762 77.1504 65.5762C76.3496 65.5762 75.8271 66.1475 75.8271 67.0117V70H74.9775ZM80.7295 64.0625C80.4365 64.0625 80.1973 63.8232 80.1973 63.5303C80.1973 63.2324 80.4365 62.998 80.7295 62.998C81.0273 62.998 81.2617 63.2324 81.2617 63.5303C81.2617 63.8232 81.0273 64.0625 80.7295 64.0625ZM80.3047 70V64.9219H81.1543V70H80.3047ZM83.7422 70L81.8721 64.9219H82.7656L84.167 69.0967H84.1865L85.5928 64.9219H86.4766L84.6113 70H83.7422ZM89.04 70.0977C87.5801 70.0977 86.7012 69.0771 86.7012 67.4805V67.4756C86.7012 65.9033 87.5996 64.8242 88.9863 64.8242C90.373 64.8242 91.2178 65.8545 91.2178 67.3779V67.6904H87.5605C87.5801 68.7354 88.1562 69.3457 89.0596 69.3457C89.7041 69.3457 90.1582 69.0234 90.3047 68.5889L90.3193 68.5449H91.1543L91.1445 68.5938C90.9785 69.4336 90.1484 70.0977 89.04 70.0977ZM88.9814 65.5762C88.2441 65.5762 87.668 66.0791 87.5752 67.0264H90.3535C90.2705 66.04 89.7236 65.5762 88.9814 65.5762ZM92.0771 70V64.9219H92.9268V65.7812H92.9463C93.1172 65.1953 93.5566 64.8242 94.1279 64.8242C94.2744 64.8242 94.4014 64.8486 94.4697 64.8584V65.6836C94.4014 65.6592 94.2207 65.6348 94.0156 65.6348C93.3564 65.6348 92.9268 66.0938 92.9268 66.8652V70H92.0771ZM96.9648 70.0977C95.7686 70.0977 95.0459 69.4873 94.9434 68.5791L94.9385 68.5352H95.7881L95.7979 68.584C95.9004 69.0918 96.2764 69.3896 96.9697 69.3896C97.6582 69.3896 98.0684 69.1016 98.0684 68.6426V68.6377C98.0684 68.2715 97.8779 68.0664 97.3018 67.9248L96.4961 67.7295C95.5391 67.5 95.0752 67.0557 95.0752 66.3232V66.3184C95.0752 65.4443 95.8418 64.8242 96.9404 64.8242C98.0537 64.8242 98.7617 65.4736 98.8252 66.3232L98.8301 66.3867H98.0195L98.0146 66.3525C97.9463 65.8594 97.5703 65.5322 96.9404 65.5322C96.3252 65.5322 95.9443 65.8301 95.9443 66.2793V66.2842C95.9443 66.6309 96.1738 66.8701 96.7354 67.0068L97.541 67.2021C98.5664 67.4512 98.9375 67.8564 98.9375 68.5791V68.584C98.9375 69.4727 98.0977 70.0977 96.9648 70.0977ZM100.3 64.0625C100.007 64.0625 99.7676 63.8232 99.7676 63.5303C99.7676 63.2324 100.007 62.998 100.3 62.998C100.598 62.998 100.832 63.2324 100.832 63.5303C100.832 63.8232 100.598 64.0625 100.3 64.0625ZM99.875 70V64.9219H100.725V70H99.875ZM103.532 70.0977C102.6 70.0977 102.141 69.6777 102.141 68.7061V65.625H101.398V64.9219H102.141V63.5498H103.02V64.9219H103.986V65.625H103.02V68.7012C103.02 69.2432 103.259 69.3945 103.713 69.3945C103.815 69.3945 103.913 69.3799 103.986 69.375V70.0635C103.879 70.0781 103.698 70.0977 103.532 70.0977ZM105.388 71.709C105.222 71.709 105.041 71.6895 104.934 71.6699V70.9766C105.007 70.9912 105.104 71.0059 105.207 71.0059C105.744 71.0059 106.042 70.8691 106.247 70.293L106.35 70.0049L104.465 64.9219H105.373L106.774 69.1504H106.794L108.2 64.9219H109.094L107.111 70.3174C106.75 71.2891 106.306 71.709 105.388 71.709Z" fill="white"/>
<path d="M13.6836 88V80.9541H16.1934C17.5166 80.9541 18.4541 81.8672 18.4541 83.2051V83.2148C18.4541 84.5527 17.5166 85.4854 16.1934 85.4854H14.5625V88H13.6836ZM15.9688 81.7354H14.5625V84.7041H15.9688C16.9746 84.7041 17.5557 84.1523 17.5557 83.2246V83.2148C17.5557 82.2871 16.9746 81.7354 15.9688 81.7354ZM21.0664 88.0977C19.9531 88.0977 19.3086 87.375 19.3086 86.2178V82.9219H20.1582V86.0664C20.1582 86.8916 20.5439 87.3457 21.3252 87.3457C22.126 87.3457 22.6484 86.7744 22.6484 85.9102V82.9219H23.498V88H22.6484V87.2773H22.6289C22.3555 87.751 21.8379 88.0977 21.0664 88.0977ZM27.1309 88.0977C26.4033 88.0977 25.8369 87.7314 25.5195 87.1406H25.5V88H24.6504V80.9541H25.5V83.7715H25.5195C25.8369 83.1855 26.4277 82.8242 27.1455 82.8242C28.4199 82.8242 29.2891 83.8545 29.2891 85.4561V85.4609C29.2891 87.0625 28.4297 88.0977 27.1309 88.0977ZM26.9648 87.3457C27.8633 87.3457 28.4199 86.6279 28.4199 85.4609V85.4561C28.4199 84.2988 27.8633 83.5762 26.9648 83.5762C26.1104 83.5762 25.4951 84.3232 25.4951 85.4561V85.4609C25.4951 86.5986 26.1055 87.3457 26.9648 87.3457ZM30.1875 88V80.9541H31.0371V88H30.1875ZM32.6631 82.0625C32.3701 82.0625 32.1309 81.8232 32.1309 81.5303C32.1309 81.2324 32.3701 80.998 32.6631 80.998C32.9609 80.998 33.1953 81.2324 33.1953 81.5303C33.1953 81.8232 32.9609 82.0625 32.6631 82.0625ZM32.2383 88V82.9219H33.0879V88H32.2383ZM36.0469 88.0977C34.8506 88.0977 34.1279 87.4873 34.0254 86.5791L34.0205 86.5352H34.8701L34.8799 86.584C34.9824 87.0918 35.3584 87.3896 36.0518 87.3896C36.7402 87.3896 37.1504 87.1016 37.1504 86.6426V86.6377C37.1504 86.2715 36.96 86.0664 36.3838 85.9248L35.5781 85.7295C34.6211 85.5 34.1572 85.0557 34.1572 84.3232V84.3184C34.1572 83.4443 34.9238 82.8242 36.0225 82.8242C37.1357 82.8242 37.8438 83.4736 37.9072 84.3232L37.9121 84.3867H37.1016L37.0967 84.3525C37.0283 83.8594 36.6523 83.5322 36.0225 83.5322C35.4072 83.5322 35.0264 83.8301 35.0264 84.2793V84.2842C35.0264 84.6309 35.2559 84.8701 35.8174 85.0068L36.623 85.2021C37.6484 85.4512 38.0195 85.8564 38.0195 86.5791V86.584C38.0195 87.4727 37.1797 88.0977 36.0469 88.0977ZM38.9473 88V80.9541H39.7969V83.7324H39.8164C40.0898 83.1611 40.6416 82.8242 41.3984 82.8242C42.4775 82.8242 43.2148 83.6592 43.2148 84.8896V88H42.3652V85.0361C42.3652 84.1182 41.8965 83.5762 41.1055 83.5762C40.3193 83.5762 39.7969 84.1719 39.7969 85.0361V88H38.9473ZM46.3838 88.0977C44.9238 88.0977 44.0449 87.0771 44.0449 85.4805V85.4756C44.0449 83.9033 44.9434 82.8242 46.3301 82.8242C47.7168 82.8242 48.5615 83.8545 48.5615 85.3779V85.6904H44.9043C44.9238 86.7354 45.5 87.3457 46.4033 87.3457C47.0479 87.3457 47.502 87.0234 47.6484 86.5889L47.6631 86.5449H48.498L48.4883 86.5938C48.3223 87.4336 47.4922 88.0977 46.3838 88.0977ZM46.3252 83.5762C45.5879 83.5762 45.0117 84.0791 44.9189 85.0264H47.6973C47.6143 84.04 47.0674 83.5762 46.3252 83.5762ZM51.3301 88.0977C50.0312 88.0977 49.1719 87.0625 49.1719 85.4609V85.4561C49.1719 83.8545 50.041 82.8242 51.3154 82.8242C52.0332 82.8242 52.624 83.1855 52.9414 83.7715H52.9609V80.9541H53.8105V88H52.9609V87.1406H52.9414C52.624 87.7314 52.0576 88.0977 51.3301 88.0977ZM51.4961 87.3457C52.3555 87.3457 52.9658 86.5986 52.9658 85.4609V85.4561C52.9658 84.3232 52.3506 83.5762 51.4961 83.5762C50.5977 83.5762 50.041 84.2988 50.041 85.4561V85.4609C50.041 86.6279 50.5977 87.3457 51.4961 87.3457ZM57.2822 88V83.625H56.5742V82.9219H57.2822V82.2969C57.2822 81.3203 57.7363 80.8564 58.6738 80.8564C58.8643 80.8564 59.0645 80.8711 59.1914 80.8906V81.5791C59.0889 81.5645 58.957 81.5596 58.8252 81.5596C58.3564 81.5596 58.1221 81.7988 58.1221 82.3018V82.9219H59.167V83.625H58.1318V88H57.2822ZM61.6621 88.0977C60.251 88.0977 59.3086 87.0771 59.3086 85.4609V85.4512C59.3086 83.835 60.2559 82.8242 61.6572 82.8242C63.0586 82.8242 64.0107 83.8301 64.0107 85.4512V85.4609C64.0107 87.082 63.0635 88.0977 61.6621 88.0977ZM61.667 87.3457C62.5605 87.3457 63.1416 86.6523 63.1416 85.4609V85.4512C63.1416 84.2598 62.5557 83.5762 61.6572 83.5762C60.7734 83.5762 60.1777 84.2646 60.1777 85.4512V85.4609C60.1777 86.6572 60.7686 87.3457 61.667 87.3457ZM64.8701 88V82.9219H65.7197V83.7812H65.7393C65.9102 83.1953 66.3496 82.8242 66.9209 82.8242C67.0674 82.8242 67.1943 82.8486 67.2627 82.8584V83.6836C67.1943 83.6592 67.0137 83.6348 66.8086 83.6348C66.1494 83.6348 65.7197 84.0938 65.7197 84.8652V88H64.8701ZM72.1113 88.0977C70.6709 88.0977 69.7578 87.0723 69.7578 85.4561V85.4512C69.7578 83.8496 70.6904 82.8242 72.1016 82.8242C73.3662 82.8242 74.1133 83.6641 74.2207 84.5332L74.2256 84.5723H73.3955L73.3857 84.5332C73.2588 84.0254 72.8486 83.5762 72.1016 83.5762C71.2178 83.5762 70.627 84.3086 70.627 85.4609V85.4658C70.627 86.6475 71.2324 87.3457 72.1113 87.3457C72.8047 87.3457 73.249 86.9551 73.3906 86.3887L73.4004 86.3496H74.2354L74.2305 86.3838C74.0938 87.3506 73.2588 88.0977 72.1113 88.0977ZM75.0166 88V82.9219H75.8662V83.7812H75.8857C76.0566 83.1953 76.4961 82.8242 77.0674 82.8242C77.2139 82.8242 77.3408 82.8486 77.4092 82.8584V83.6836C77.3408 83.6592 77.1602 83.6348 76.9551 83.6348C76.2959 83.6348 75.8662 84.0938 75.8662 84.8652V88H75.0166ZM79.9482 88.0977C78.4883 88.0977 77.6094 87.0771 77.6094 85.4805V85.4756C77.6094 83.9033 78.5078 82.8242 79.8945 82.8242C81.2812 82.8242 82.126 83.8545 82.126 85.3779V85.6904H78.4688C78.4883 86.7354 79.0645 87.3457 79.9678 87.3457C80.6123 87.3457 81.0664 87.0234 81.2129 86.5889L81.2275 86.5449H82.0625L82.0527 86.5938C81.8867 87.4336 81.0566 88.0977 79.9482 88.0977ZM79.8896 83.5762C79.1523 83.5762 78.5762 84.0791 78.4834 85.0264H81.2617C81.1787 84.04 80.6318 83.5762 79.8896 83.5762ZM84.8945 88.0977C83.5957 88.0977 82.7363 87.0625 82.7363 85.4609V85.4561C82.7363 83.8545 83.6055 82.8242 84.8799 82.8242C85.5977 82.8242 86.1885 83.1855 86.5059 83.7715H86.5254V80.9541H87.375V88H86.5254V87.1406H86.5059C86.1885 87.7314 85.6221 88.0977 84.8945 88.0977ZM85.0605 87.3457C85.9199 87.3457 86.5303 86.5986 86.5303 85.4609V85.4561C86.5303 84.3232 85.915 83.5762 85.0605 83.5762C84.1621 83.5762 83.6055 84.2988 83.6055 85.4561V85.4609C83.6055 86.6279 84.1621 87.3457 85.0605 87.3457ZM89.001 82.0625C88.708 82.0625 88.4688 81.8232 88.4688 81.5303C88.4688 81.2324 88.708 80.998 89.001 80.998C89.2988 80.998 89.5332 81.2324 89.5332 81.5303C89.5332 81.8232 89.2988 82.0625 89.001 82.0625ZM88.5762 88V82.9219H89.4258V88H88.5762ZM93.1074 88.0977C92.3799 88.0977 91.8135 87.7314 91.4961 87.1406H91.4766V88H90.627V80.9541H91.4766V83.7715H91.4961C91.8135 83.1855 92.4043 82.8242 93.1221 82.8242C94.3965 82.8242 95.2656 83.8545 95.2656 85.4561V85.4609C95.2656 87.0625 94.4062 88.0977 93.1074 88.0977ZM92.9414 87.3457C93.8398 87.3457 94.3965 86.6279 94.3965 85.4609V85.4561C94.3965 84.2988 93.8398 83.5762 92.9414 83.5762C92.0869 83.5762 91.4717 84.3232 91.4717 85.4561V85.4609C91.4717 86.5986 92.082 87.3457 92.9414 87.3457ZM96.1641 88V80.9541H97.0137V88H96.1641ZM100.251 88.0977C98.791 88.0977 97.9121 87.0771 97.9121 85.4805V85.4756C97.9121 83.9033 98.8105 82.8242 100.197 82.8242C101.584 82.8242 102.429 83.8545 102.429 85.3779V85.6904H98.7715C98.791 86.7354 99.3672 87.3457 100.271 87.3457C100.915 87.3457 101.369 87.0234 101.516 86.5889L101.53 86.5449H102.365L102.355 86.5938C102.189 87.4336 101.359 88.0977 100.251 88.0977ZM100.192 83.5762C99.4551 83.5762 98.8789 84.0791 98.7861 85.0264H101.564C101.481 84.04 100.935 83.5762 100.192 83.5762ZM107.443 88.0977C106.003 88.0977 105.09 87.0723 105.09 85.4561V85.4512C105.09 83.8496 106.022 82.8242 107.434 82.8242C108.698 82.8242 109.445 83.6641 109.553 84.5332L109.558 84.5723H108.728L108.718 84.5332C108.591 84.0254 108.181 83.5762 107.434 83.5762C106.55 83.5762 105.959 84.3086 105.959 85.4609V85.4658C105.959 86.6475 106.564 87.3457 107.443 87.3457C108.137 87.3457 108.581 86.9551 108.723 86.3887L108.732 86.3496H109.567L109.562 86.3838C109.426 87.3506 108.591 88.0977 107.443 88.0977ZM112.453 88.0977C111.042 88.0977 110.1 87.0771 110.1 85.4609V85.4512C110.1 83.835 111.047 82.8242 112.448 82.8242C113.85 82.8242 114.802 83.8301 114.802 85.4512V85.4609C114.802 87.082 113.854 88.0977 112.453 88.0977ZM112.458 87.3457C113.352 87.3457 113.933 86.6523 113.933 85.4609V85.4512C113.933 84.2598 113.347 83.5762 112.448 83.5762C111.564 83.5762 110.969 84.2646 110.969 85.4512V85.4609C110.969 86.6572 111.56 87.3457 112.458 87.3457ZM115.661 88V82.9219H116.511V83.6445H116.53C116.804 83.1709 117.321 82.8242 118.093 82.8242C119.206 82.8242 119.851 83.5469 119.851 84.7041V88H119.001V84.8555C119.001 84.0303 118.615 83.5762 117.834 83.5762C117.033 83.5762 116.511 84.1475 116.511 85.0117V88H115.661ZM121.208 88V83.625H120.5V82.9219H121.208V82.2969C121.208 81.3203 121.662 80.8564 122.6 80.8564C122.79 80.8564 122.99 80.8711 123.117 80.8906V81.5791C123.015 81.5645 122.883 81.5596 122.751 81.5596C122.282 81.5596 122.048 81.7988 122.048 82.3018V82.9219H123.093V83.625H122.058V88H121.208ZM125.573 88.0977C124.113 88.0977 123.234 87.0771 123.234 85.4805V85.4756C123.234 83.9033 124.133 82.8242 125.52 82.8242C126.906 82.8242 127.751 83.8545 127.751 85.3779V85.6904H124.094C124.113 86.7354 124.689 87.3457 125.593 87.3457C126.237 87.3457 126.691 87.0234 126.838 86.5889L126.853 86.5449H127.688L127.678 86.5938C127.512 87.4336 126.682 88.0977 125.573 88.0977ZM125.515 83.5762C124.777 83.5762 124.201 84.0791 124.108 85.0264H126.887C126.804 84.04 126.257 83.5762 125.515 83.5762ZM128.61 88V82.9219H129.46V83.7812H129.479C129.65 83.1953 130.09 82.8242 130.661 82.8242C130.808 82.8242 130.935 82.8486 131.003 82.8584V83.6836C130.935 83.6592 130.754 83.6348 130.549 83.6348C129.89 83.6348 129.46 84.0938 129.46 84.8652V88H128.61ZM133.542 88.0977C132.082 88.0977 131.203 87.0771 131.203 85.4805V85.4756C131.203 83.9033 132.102 82.8242 133.488 82.8242C134.875 82.8242 135.72 83.8545 135.72 85.3779V85.6904H132.062C132.082 86.7354 132.658 87.3457 133.562 87.3457C134.206 87.3457 134.66 87.0234 134.807 86.5889L134.821 86.5449H135.656L135.646 86.5938C135.48 87.4336 134.65 88.0977 133.542 88.0977ZM133.483 83.5762C132.746 83.5762 132.17 84.0791 132.077 85.0264H134.855C134.772 84.04 134.226 83.5762 133.483 83.5762ZM136.579 88V82.9219H137.429V83.6445H137.448C137.722 83.1709 138.239 82.8242 139.011 82.8242C140.124 82.8242 140.769 83.5469 140.769 84.7041V88H139.919V84.8555C139.919 84.0303 139.533 83.5762 138.752 83.5762C137.951 83.5762 137.429 84.1475 137.429 85.0117V88H136.579ZM143.957 88.0977C142.517 88.0977 141.604 87.0723 141.604 85.4561V85.4512C141.604 83.8496 142.536 82.8242 143.947 82.8242C145.212 82.8242 145.959 83.6641 146.066 84.5332L146.071 84.5723H145.241L145.231 84.5332C145.104 84.0254 144.694 83.5762 143.947 83.5762C143.063 83.5762 142.473 84.3086 142.473 85.4609V85.4658C142.473 86.6475 143.078 87.3457 143.957 87.3457C144.65 87.3457 145.095 86.9551 145.236 86.3887L145.246 86.3496H146.081L146.076 86.3838C145.939 87.3506 145.104 88.0977 143.957 88.0977ZM148.952 88.0977C147.492 88.0977 146.613 87.0771 146.613 85.4805V85.4756C146.613 83.9033 147.512 82.8242 148.898 82.8242C150.285 82.8242 151.13 83.8545 151.13 85.3779V85.6904H147.473C147.492 86.7354 148.068 87.3457 148.972 87.3457C149.616 87.3457 150.07 87.0234 150.217 86.5889L150.231 86.5449H151.066L151.057 86.5938C150.891 87.4336 150.061 88.0977 148.952 88.0977ZM148.894 83.5762C148.156 83.5762 147.58 84.0791 147.487 85.0264H150.266C150.183 84.04 149.636 83.5762 148.894 83.5762Z" fill="white"/>
<path d="M179.566 14L177.264 5.54492H178.365L180.07 12.4883H180.094L182.01 5.54492H183.076L184.992 12.4883H185.016L186.721 5.54492H187.822L185.52 14H184.523L182.555 7.22656H182.531L180.562 14H179.566ZM190.611 14.1172C188.859 14.1172 187.805 12.8926 187.805 10.9766V10.9707C187.805 9.08398 188.883 7.78906 190.547 7.78906C192.211 7.78906 193.225 9.02539 193.225 10.8535V11.2285H188.836C188.859 12.4824 189.551 13.2148 190.635 13.2148C191.408 13.2148 191.953 12.8281 192.129 12.3066L192.146 12.2539H193.148L193.137 12.3125C192.938 13.3203 191.941 14.1172 190.611 14.1172ZM190.541 8.69141C189.656 8.69141 188.965 9.29492 188.854 10.4316H192.188C192.088 9.24805 191.432 8.69141 190.541 8.69141ZM194.83 6.875C194.479 6.875 194.191 6.58789 194.191 6.23633C194.191 5.87891 194.479 5.59766 194.83 5.59766C195.188 5.59766 195.469 5.87891 195.469 6.23633C195.469 6.58789 195.188 6.875 194.83 6.875ZM194.32 14V7.90625H195.34V14H194.32ZM199.307 16.168C197.801 16.168 196.852 15.459 196.652 14.5566L196.641 14.5039H197.666L197.689 14.5566C197.883 14.9961 198.463 15.2656 199.295 15.2656C200.367 15.2656 200.977 14.6738 200.977 13.7305V12.9512H200.953C200.59 13.625 199.887 14.0586 199.014 14.0586C197.479 14.0586 196.43 12.8223 196.43 10.918V10.9121C196.43 9.01953 197.49 7.78906 199.037 7.78906C199.898 7.78906 200.578 8.25781 200.953 8.9375H200.977V7.90625H201.996V13.8301C201.996 15.2422 200.959 16.168 199.307 16.168ZM199.236 13.1562C200.273 13.1562 200.977 12.2715 200.977 10.918V10.9121C200.977 9.57031 200.268 8.69141 199.236 8.69141C198.152 8.69141 197.473 9.55859 197.473 10.9121V10.918C197.473 12.3008 198.152 13.1562 199.236 13.1562ZM203.367 14V5.54492H204.387V8.87891H204.41C204.738 8.19336 205.4 7.78906 206.309 7.78906C207.604 7.78906 208.488 8.79102 208.488 10.2676V14H207.469V10.4434C207.469 9.3418 206.906 8.69141 205.957 8.69141C205.014 8.69141 204.387 9.40625 204.387 10.4434V14H203.367ZM211.764 14.1172C210.645 14.1172 210.094 13.6133 210.094 12.4473V8.75H209.203V7.90625H210.094V6.25977H211.148V7.90625H212.309V8.75H211.148V12.4414C211.148 13.0918 211.436 13.2734 211.98 13.2734C212.104 13.2734 212.221 13.2559 212.309 13.25V14.0762C212.18 14.0938 211.963 14.1172 211.764 14.1172Z" fill="white"/>
</svg>
