<svg width="54" height="54" viewBox="0 0 54 54" fill="none" xmlns="http://www.w3.org/2000/svg">
<circle cx="27" cy="27" r="26.5" stroke="#8E919A"/>
<path d="M26.5781 30.5332C29.2043 30.5332 31.3242 28.4133 31.3242 25.7871V16.2949C31.3242 13.6688 29.2043 11.5488 26.5781 11.5488C23.952 11.5488 21.832 13.6688 21.832 16.2949V25.7871C21.832 28.4133 23.952 30.5332 26.5781 30.5332Z" fill="white"/>
<path d="M34.4883 25.7871C34.4883 30.1535 30.9445 33.6973 26.5781 33.6973C22.2117 33.6973 18.668 30.1535 18.668 25.7871H15.5039C15.5039 31.3717 19.633 35.9596 24.9961 36.7348V41.6074H28.1602V36.7348C33.5232 35.9596 37.6523 31.3717 37.6523 25.7871H34.4883Z" fill="white"/>
</svg>
