<svg width="16" height="16" viewBox="0 0 16 16" fill="none" xmlns="http://www.w3.org/2000/svg">
<path d="M7.3335 3.33333H8.66683V4.66667H7.3335V3.33333ZM7.3335 6H8.66683V10H7.3335V6ZM8.00016 0C4.32016 0 1.3335 2.98667 1.3335 6.66667C1.3335 10.3467 4.32016 13.3333 8.00016 13.3333C11.6802 13.3333 14.6668 10.3467 14.6668 6.66667C14.6668 2.98667 11.6802 0 8.00016 0ZM8.00016 12C5.06016 12 2.66683 9.60667 2.66683 6.66667C2.66683 3.72667 5.06016 1.33333 8.00016 1.33333C10.9402 1.33333 13.3335 3.72667 13.3335 6.66667C13.3335 9.60667 10.9402 12 8.00016 12Z" fill="white"/>
</svg>
